<svg width="35" height="35" viewBox="0 0 35 35" fill="none" xmlns="http://www.w3.org/2000/svg">
<path d="M34.7899 28.3633L31.2404 23.9066V13.149C31.2404 9.51899 29.7029 6.23075 27.2152 3.8523C24.7289 1.47256 21.2951 0 17.5 0H17.4558C9.85128 0.0233946 3.7596 6.06699 3.7596 13.344V23.9066L0.210123 28.3633C-0.300658 29.0067 0.177631 29.932 1.02243 29.932H12.955C12.9199 30.1504 12.9017 30.3739 12.9017 30.6014C12.9017 33.0305 14.9604 34.9996 17.4987 34.9996C20.037 34.9996 22.0957 33.0305 22.0957 30.6014C22.0957 30.3739 22.0775 30.1504 22.0424 29.932H33.9776C34.8224 29.932 35.3007 29.0067 34.7899 28.3633ZM19.3664 30.6014C19.3664 31.5216 18.5294 32.2702 17.4987 32.2702C16.468 32.2702 15.631 31.5216 15.631 30.6014C15.631 30.3635 15.6869 30.1374 15.7883 29.932H19.2091C19.3105 30.1374 19.3664 30.3635 19.3664 30.6014ZM4.6239 27.2027L5.895 25.608L6.48896 24.8606V13.344C6.48896 7.50965 11.4122 2.74756 17.4649 2.72937H17.5C20.4646 2.72937 23.2434 3.82761 25.3294 5.82525C27.3816 7.78779 28.511 10.3885 28.511 13.149V24.8606L29.105 25.608L30.3761 27.2027H4.6239Z" fill="#222222"/>
</svg>
