<svg width="25" height="25" viewBox="0 0 25 25" fill="none" xmlns="http://www.w3.org/2000/svg">
    <path d="m12.5 2.338 10.55 7.855V23.05h-3.995v-3.425c0-1.751-.681-3.397-1.92-4.636a6.512 6.512 0 0 0-4.635-1.92 6.563 6.563 0 0 0-6.555 6.556v3.425H1.949V10.192L12.5 2.338zM12.5 0c-.08 0-.16.027-.234.082L.256 9.022C.098 9.14 0 9.366 0 9.612v14.716c0 .37.22.671.49.671h7.405v-5.375a4.605 4.605 0 1 1 9.21 0v5.375h7.405c.27 0 .49-.3.49-.671V9.612c0-.246-.098-.472-.256-.59L12.734.08A.392.392 0 0 0 12.5 0z" fill="#222"/>
</svg>
