<svg width="25" height="25" viewBox="0 0 25 25" fill="none" xmlns="http://www.w3.org/2000/svg">
    <path d="M24.188 7.54c-.542-1.511-1.276-2.827-2.203-3.946a10.338 10.338 0 0 0-3.25-2.637A8.519 8.519 0 0 0 14.78 0c-2.104 0-4.056.501-5.86 1.504-1.801 1.003-3.364 2.383-4.687 4.14-1.323 1.758-2.359 3.842-3.109 6.25C.375 14.304 0 16.914 0 19.727v2.929c0 .626.188 1.172.563 1.641.375.47.812.703 1.312.703H15.25c1.355 0 2.62-.332 3.797-.996 1.177-.664 2.208-1.563 3.094-2.695.885-1.133 1.583-2.468 2.094-4.004.51-1.537.765-3.164.765-4.883 0-1.72-.27-3.372-.812-4.883zM3.875 9.881a16.036 16.036 0 0 1 2.594-3.866l4.812 2.5a2.49 2.49 0 0 1 1.235 1.133c.28.52.422 1.158.422 1.914 0 .884-.245 1.634-.735 2.245-.489.612-1.12.919-1.89.919H2.28c.375-1.798.907-3.412 1.594-4.845z" fill="#222"/>
</svg>
