<svg width="90" height="54" viewBox="0 0 90 54" fill="none" xmlns="http://www.w3.org/2000/svg">
    <path d="M89.802 37.905c-.975-5.76-5.707-10.322-11.651-11.246-2.548-.396-4.994-.134-7.192.642a.448.448 0 0 1-.496-.141c-.527-.667-.953-1.214-1.03-1.299l-.04-.05a34.786 34.786 0 0 1-.444-.603c-.331-.451-.673-.924-1.008-1.38-.226-.313-.44-.627-.652-.952.328.268.666.452 1.001.53 2.126.472 3.564.186 4.12.027a.24.24 0 0 0 .16-.32l-.075-.202a.242.242 0 0 1 .116-.3c1.947-1.083 2.712-3.97 1.693-6.793-.525-1.453-1.438-2.685-2.574-3.468-1.18-.812-2.457-1.055-3.618-.702l-.022-.057a.569.569 0 0 0-.531-.353h-.801c-2.184.032-2.785 1.182-2.952 1.814a.559.559 0 0 1-.546.406h-.251a.572.572 0 0 1-.517-.318c-.207-.427-.357-.72-.4-.808l-.026-.06c-.659-1.93-.939-3.151-.95-3.186-.24-1.119-1.252-1.913-2.431-1.913h-.259c-.156-1.104-.437-2.706-.833-3.366a3.045 3.045 0 0 0-1.758-1.373.405.405 0 0 1-.292-.3c-.17-.765-.793-1.15-1.656-1.387l-2.282-.62c-1.278-.353-2.027.003-2.239 1.443l-.087.578c-.211 1.44.204 2.195 1.514 2.315l2.34.219c.947.092 1.817-.014 2.214-.822a.81.81 0 0 0 .025-.067c.266.063.652.243.95.737.186.307.383 1.214.539 2.16.04.257-.16.49-.43.49l-2.427.01a.471.471 0 0 1-.357-.176.748.748 0 0 0-.579-.26c-1.248.024-4.193-.05-7.2-1.077a.76.76 0 0 0-.946.42l-1.572 3.3c-.175.43.098.903.571.984 1.343.226 7.153 1.037 9.566 1.125a.438.438 0 0 0 .415-.254l.105-.243a.446.446 0 0 1 .463-.254l2.275.32.007.005c.193.66.444 1.93.768 3.119.113.413-.273.77-.699.674-.087-.018-.175-.035-.258-.046 0 0-16.631-3.024-19.83 5.247a.57.57 0 0 1-.558.367c-3.177-.17-10.144-.54-11.695-.663-1.325-.103-2.271-1.32-2.766-2.146-.302-.511-.848-.963-1.452-.889-5.075.614-11.022 2.904-13.435 3.903a.414.414 0 0 0 .076.794c3.633.769 14.25 2.212 18.418 4.89a.413.413 0 0 1 .037.675c-.816.652-1.65 1.32-2.472 1.969a.448.448 0 0 1-.524.017 14.265 14.265 0 0 0-3.414-1.725 14.88 14.88 0 0 0-.98-.297c-.112-.028-.229-.06-.342-.088l-.043-.01c-.12-.025-.244-.054-.364-.078-.117-.025-.233-.046-.35-.07-.12-.022-.247-.043-.371-.064a6.812 6.812 0 0 0-.375-.053 13.953 13.953 0 0 0-.379-.046c-.127-.014-.254-.025-.382-.035-.127-.011-.258-.018-.386-.025a14.843 14.843 0 0 0-3.64.258 14.243 14.243 0 0 0-1.776.47C3.321 29.315-.945 35.497.18 42.459c.954 5.928 5.893 10.6 12.026 11.408 7.531.992 14.109-3.747 15.776-10.356 0 0 .15-.59.255-1.302.01-.064 16.99.557 20.5-.322 2.93-.613 5.423-2.04 6.77-5.296l-.258.65s.021.006.032.013l1.001-2.484.037-.095s-.03-.01-.037-.014a143.571 143.571 0 0 0 3.96-11.606.42.42 0 0 1 .106-.177c.07-.067.138-.137.211-.211.583.684 3.647 4.615 5.537 7.022.13.17.109.41-.051.557-3.204 2.94-4.994 7.308-4.281 12.05.903 6.035 5.919 10.81 12.157 11.586 9.49 1.182 17.447-6.73 15.881-15.978zm-20.638-24.99c.55 0 1.14.204 1.71.6.892.613 1.613 1.598 2.04 2.776.25.695.367 1.398.367 2.054 0 1.073-.317 2.026-.885 2.625-.215.223-.604.135-.717-.151l-3.046-7.83c.17-.043.349-.075.531-.075zm-50.94 33.197a7.637 7.637 0 0 1-1.864.865c-.011.003-.022.007-.03.007a7.405 7.405 0 0 1-2.14.31 7.39 7.39 0 0 1-1.46-.144c-3.592-.706-6.224-3.97-5.78-7.75.364-3.101 2.843-5.642 6.02-6.14 3.455-.54 6.545 1.264 7.848 4.034.044.092-.036.194-.138.18l-5.937-.688a.13.13 0 0 0-.13.067l-1.304 4.033c-.04.074 0 .163.08.184 2.13.526 4.387.515 7.742.737.084.007.142.081.124.16-.447 1.721-1.55 3.19-3.032 4.145zm11.25-7.615-1.12-.13a.126.126 0 0 1-.114-.11 13.357 13.357 0 0 0-1.907-5.155.534.534 0 0 1 .11-.702c.603-.501 1.215-1.02 1.826-1.546a.443.443 0 0 1 .688.134l1.991 4.147c.426.889.772 1.81 1.074 2.745.058.18.128.367.2.557a.127.127 0 0 1-.127.173l-2.61-.116h-.01v.003zM57.17 25.646c-.163.505-.338 1.044-.542 1.655a.565.565 0 0 1-.564.381c-2.861-.13-18.79-.72-20.187 7.018-.215 1.186-.251 2.188-.157 3.035.08.72-.953 1.013-1.277.36-.004-.007-.011-.017-.015-.028-.637-1.302-.68-2.7-.68-2.7v-.056c-.299-6.945 1.011-9.051 1.587-9.633.21-.209.931-.223.931-.223l20.479-.356c.298-.004.513.272.425.547zm17.44 21.557c-3.047-.473-5.486-2.823-5.985-5.777-.75-4.41 2.763-8.246 7.178-8.246 4.015 0 7.28 3.168 7.28 7.057 0 4.273-3.931 7.668-8.474 6.966z" fill="#999"/>
</svg>
