<svg width="100" height="65" viewBox="0 0 100 65" fill="none" xmlns="http://www.w3.org/2000/svg">
    <path d="M29.775 46.642c.805-1.356 1.203-3.187 1.203-5.477 0-1.7-.314-3.23-.85-4.5-.583-1.276-1.342-2.297-2.323-3.143-.98-.766-2.146-1.357-3.48-1.787a16.599 16.599 0 0 0-4.375-.598H.353c-.192 0-.353.153-.353.335v33.192c0 .182.16.335.353.335h8.583c.192 0 .353-.153.353-.335V54.643c0-.153.115-.292.276-.328l7.924-1.663a.356.356 0 0 1 .399.197l5.334 11.946a.351.351 0 0 0 .322.204h8.921c.253 0 .422-.248.322-.466l-6.453-14.215c-.07-.153 0-.328.145-.416 1.434-.831 2.545-1.889 3.304-3.252l-.008-.008zm-8.883-2.888c-.582.678-1.61 1.145-3.127 1.4l-8.07 1.415c-.215.037-.414-.116-.414-.328v-7.46c0-.183.161-.336.353-.336H18.7c.89 0 1.656.299 2.23.846a3.07 3.07 0 0 1 .805 2.078c0 .934-.314 1.7-.85 2.378l.007.007zM48.307 56.1 42.29 42.606a.351.351 0 0 0-.321-.205h-6.714c-.192 0-.353.154-.353.336V64.66c0 .183.161.336.353.336H41.9c.191 0 .352-.153.352-.336v-5.936c0-.358.514-.467.667-.139l3.043 6.214a.36.36 0 0 0 .321.19h4.722a.36.36 0 0 0 .322-.19l3.042-6.214c.161-.32.667-.219.667.139v5.936c0 .183.16.336.352.336h6.645c.192 0 .353-.153.353-.336V42.738c0-.182-.161-.336-.353-.336H55.32a.351.351 0 0 0-.321.205l-6.04 13.492c-.122.27-.529.27-.643 0h-.008z" fill="#fff"/>
    <path d="M93.878 51.033a.368.368 0 0 0-.536.072l-.161.248c-.59.92-1.158 1.7-1.74 2.364a10.84 10.84 0 0 1-2.054 1.743c-.82.503-1.648.875-2.483 1.086-.912.256-1.924.38-3.097.38-1.463 0-2.697-.227-3.793-.723a7.588 7.588 0 0 1-2.936-1.983 7.901 7.901 0 0 1-1.847-2.94c-.444-1.079-.666-2.275-.666-3.675s.222-2.618.674-3.734a8.874 8.874 0 0 1 1.893-2.976c.774-.817 1.71-1.451 2.843-1.94a9.811 9.811 0 0 1 3.74-.715c2.215 0 4.085.489 5.557 1.459 1.464.984 2.72 2.334 3.717 4.018l.153.256c.108.182.36.226.53.095l6.169-4.945a.327.327 0 0 0 .061-.453l-.146-.19c-2.054-2.698-4.406-4.776-6.99-6.177-2.62-1.385-5.732-2.078-9.265-2.078-2.575 0-5.074.43-7.427 1.284-.046.014-.084.036-.13.058-.192-.255-.39-.51-.59-.78-.406-.555-.835-1.131-1.25-1.685l-.015-.022c-.184-.255.07-.591.384-.51.023 0 .046.014.069.014 2.598.561 4.368.24 5.088.044a.329.329 0 0 0 .23-.438l-.069-.182a.318.318 0 0 1 .146-.401c2.414-1.328 3.365-4.843 2.092-8.286-.651-1.772-1.793-3.274-3.203-4.237-1.372-.926-2.844-1.247-4.215-.934a.345.345 0 0 1-.399-.211.356.356 0 0 0-.33-.219h-1.241c-2.851.037-3.533 1.583-3.702 2.327a.494.494 0 0 1-.49.386h-.606a.5.5 0 0 1-.452-.277c-.291-.59-.498-1-.56-1.108-.007-.022-.015-.044-.023-.059-.82-2.356-1.172-3.85-1.187-3.894-.3-1.364-1.556-2.334-3.028-2.334h-.322c-.191-1.342-.536-3.304-1.034-4.106-.613-1-1.48-1.481-2.215-1.685a.485.485 0 0 1-.337-.38c-.223-.926-.99-1.392-2.054-1.677L53.787.155c-1.586-.43-2.521 0-2.782 1.765l-.107.707c-.26 1.758.253 2.677 1.885 2.823l2.905.27c1.18.109 2.26-.015 2.751-1.007a.348.348 0 0 0 .031-.08c.33.08.812.299 1.18.897.238.379.483 1.51.675 2.684a.487.487 0 0 1-.498.554l-3.09.015a.464.464 0 0 1-.382-.175.919.919 0 0 0-.76-.358c-1.547.03-5.218-.058-8.958-1.313-.468-.16-.997.066-1.18.51l-1.955 4.027c-.222.532.123 1.101.705 1.203 1.701.277 9.12 1.298 12.033 1.379a.361.361 0 0 0 .337-.205l.245-.54a.353.353 0 0 1 .376-.196l2.973.408c.292.97.506 2.174.958 3.837.054.328-.383.714-.697.67-8.009-1.24-16.509-.984-21.299 2.1-2.582 1.664-10.055 5.478-12.569 6.755a.466.466 0 0 0-.023.831c1.725.97 5.71 3.793 7.12 9.693.13.547.66.933 1.25.94l27.406.27h.016c.023-.226 4.322-8.759 4.46-8.606.927 1.058 2.943 3.516 3.64 4.318.07.073.146.168.223.255-.13.11-.445.394-.575.504a16.428 16.428 0 0 0-3.993 5.513c-.989 2.152-1.471 4.45-1.471 7.016 0 2.568.482 4.901 1.471 7.002.973 2.203 2.284 4.011 3.993 5.528 1.67 1.51 3.686 2.713 5.993 3.567a21.7 21.7 0 0 0 7.42 1.283c3.601 0 6.79-.73 9.487-2.166 2.622-1.459 4.844-3.442 6.814-6.06l.138-.183a.318.318 0 0 0-.054-.445l-6.024-5.112h.023zm-16.11-34.534c1.104.751 2.008 1.954 2.537 3.391.828 2.247.498 4.559-.66 5.733-.26.262-.72.19-.85-.146l-3.663-9.24c-.085-.205.061-.431.29-.453.078 0 .147-.014.223-.014.69 0 1.418.247 2.13.729h-.007z" fill="#fff"/>
</svg>
