<svg width="25" height="25" viewBox="0 0 25 25" fill="none" xmlns="http://www.w3.org/2000/svg">
    <path fill-rule="evenodd" clip-rule="evenodd" d="M5.515 4.136h18.808c.4 0 .711.292.674.63l-1.556 14.281c-.032.297-.325.525-.673.525h-1.347c.433.57.69 1.288.69 2.068 0 1.856-1.46 3.36-3.26 3.36-1.8 0-3.26-1.504-3.26-3.36 0-.78.259-1.498.691-2.068h-3.72c.432.57.69 1.288.69 2.068 0 1.856-1.458 3.36-3.26 3.36-1.8 0-3.26-1.504-3.26-3.36 0-.78.259-1.498.691-2.068H6.076c-.349 0-.64-.227-.673-.525L3.851 4.797a5.65 5.65 0 0 0-.475-1.391c-.552-1.082-1.362-1.6-2.48-1.584A.898.898 0 0 1 0 .923.898.898 0 0 1 .872.001C2.69-.025 4.106.88 4.97 2.617c.267.539.438 1.08.545 1.52zM8.59 21.64c0 .83.63 1.503 1.404 1.503.773 0 1.403-.675 1.403-1.503 0-.828-.629-1.502-1.403-1.502s-1.404.673-1.404 1.502zm8.86 0c0 .83.629 1.503 1.402 1.503.774 0 1.404-.675 1.404-1.503 0-.828-.63-1.502-1.404-1.502-.773 0-1.402.673-1.402 1.502zM6.966 17.088 5.756 5.957h17.334H5.756l1.212 11.13z" fill="#222"/>
</svg>
