<svg width="25" height="25" viewBox="0 0 25 25" fill="none" xmlns="http://www.w3.org/2000/svg">
    <path d="M15.25 22.655c2.209 0 4.073-1.01 5.594-3.027 1.52-2.018 2.28-4.421 2.28-7.207 0-2.786-.817-5.26-2.452-7.187-1.636-1.927-3.6-2.89-5.89-2.89-1.168 0-2.261.175-3.281.526-1.022.352-2.094.906-3.219 1.66l3.781 1.758c1.062.494 1.786 1.204 2.172 2.128.385.925.578 1.973.578 3.144 0 1.563-.417 2.872-1.25 3.926-.833 1.055-1.854 1.582-3.062 1.582H2.063c-.104.6-.162 1.4-.172 2.403-.01 1.002-.016 2.064-.016 3.183H15.25v.001zm-12.968-7.93h8.031c.77 0 1.401-.306 1.891-.918.49-.612.735-1.36.735-2.245 0-.755-.14-1.394-.422-1.915a2.486 2.486 0 0 0-1.235-1.132l-4.812-2.5a16.022 16.022 0 0 0-2.594 3.867c-.688 1.433-1.219 3.047-1.594 4.844zM15.25 24.998H1.875c-.5 0-.937-.234-1.312-.703A2.549 2.549 0 0 1 0 22.655v-2.93c0-2.813.375-5.423 1.125-7.831.75-2.41 1.786-4.492 3.11-6.25 1.322-1.757 2.885-3.138 4.687-4.14C10.724.5 12.677 0 14.782 0c1.396 0 2.713.32 3.952.957a10.337 10.337 0 0 1 3.25 2.637c.928 1.12 1.662 2.435 2.204 3.945.54 1.51.812 3.138.812 4.883s-.255 3.347-.766 4.883c-.51 1.536-1.209 2.871-2.093 4.004-.886 1.133-1.917 2.031-3.094 2.695A7.605 7.605 0 0 1 15.25 25v-.002z" fill="#222"/>
</svg>
