<svg width="20" height="20" viewBox="0 0 20 20" fill="none" xmlns="http://www.w3.org/2000/svg">
    <path d="M17.646 10.98c.043-.313.064-.636.064-.98 0-.333-.021-.667-.075-.98l2.174-1.645a.502.502 0 0 0 .129-.635L17.882 3.28c-.129-.229-.397-.302-.632-.229l-2.56 1a7.618 7.618 0 0 0-1.734-.98L12.57.428A.514.514 0 0 0 12.056 0H7.944a.503.503 0 0 0-.503.427l-.386 2.646c-.632.25-1.21.594-1.735.98l-2.56-1a.518.518 0 0 0-.631.228L.084 6.74c-.129.218-.086.49.128.635l2.174 1.646A5.952 5.952 0 0 0 2.29 10c0 .323.021.667.075.98L.19 12.624a.502.502 0 0 0-.129.635l2.056 3.459c.129.229.396.302.632.229l2.56-1a7.62 7.62 0 0 0 1.734.98l.386 2.645c.053.25.257.427.514.427h4.112a.495.495 0 0 0 .503-.427l.386-2.646a7.398 7.398 0 0 0 1.735-.98l2.56 1c.235.084.503 0 .631-.228l2.056-3.459a.474.474 0 0 0-.128-.635l-2.153-1.646zM10 13.75c-2.12 0-3.855-1.688-3.855-3.75 0-2.063 1.735-3.75 3.855-3.75s3.855 1.688 3.855 3.75c0 2.063-1.735 3.75-3.855 3.75z" fill="#999"/>
</svg>
