<svg width="25" height="25" viewBox="0 0 25 25" fill="none" xmlns="http://www.w3.org/2000/svg">
    <path d="M12.501 1.857c2.27 0 4.116 1.934 4.116 4.314s-1.846 4.314-4.116 4.314c-2.27 0-4.116-1.935-4.116-4.314 0-2.38 1.847-4.314 4.116-4.314zm0-1.857C9.194 0 6.513 2.763 6.513 6.17c0 3.409 2.682 6.172 5.988 6.172 3.307 0 5.988-2.763 5.988-6.171C18.49 2.763 15.81 0 12.501 0zM12.501 14.884c2.428 0 4.72.818 6.628 2.366a11.168 11.168 0 0 1 3.774 5.895H2.1a11.173 11.173 0 0 1 3.779-5.898l.067-.055a10.413 10.413 0 0 1 6.556-2.308zm0-1.857a12.353 12.353 0 0 0-7.807 2.78A13.106 13.106 0 0 0 .01 24.03.848.848 0 0 0 .853 25h23.294c.521 0 .921-.46.843-.97a13.096 13.096 0 0 0-4.678-8.219 12.354 12.354 0 0 0-7.813-2.784h.002z" fill="#222"/>
</svg>
