<svg width="25" height="25" viewBox="0 0 25 25" fill="none" xmlns="http://www.w3.org/2000/svg">
    <path d="M19.722 12.501a.975.975 0 0 1-.974.975h-5.413v5.411a.975.975 0 1 1-1.949 0v-5.41H5.975a.975.975 0 1 1 0-1.95h5.411V6.115a.975.975 0 0 1 1.95 0v5.412h5.412c.538 0 .974.436.974.974z" fill="#222"/>
    <path d="M12.5 1.95c2.818 0 5.468 1.097 7.46 3.09a10.482 10.482 0 0 1 3.09 7.46 10.48 10.48 0 0 1-3.09 7.46 10.48 10.48 0 0 1-7.46 3.09 10.48 10.48 0 0 1-7.46-3.09 10.48 10.48 0 0 1-3.09-7.46 10.48 10.48 0 0 1 3.09-7.46 10.48 10.48 0 0 1 7.46-3.09zm0-1.95C5.597 0 0 5.596 0 12.5S5.596 25 12.5 25 25 19.404 25 12.5 19.403 0 12.5 0z" fill="#222"/>
</svg>
