<svg width="25" height="25" viewBox="0 0 25 25" fill="none" xmlns="http://www.w3.org/2000/svg">
<path fill-rule="evenodd" clip-rule="evenodd" d="M18.4871 6.17073C18.4871 9.57873 15.8063 12.3415 12.4995 12.3415C9.19265 12.3415 6.51193 9.57873 6.51193 6.17073C6.51193 2.76273 9.19265 0 12.4995 0C15.8063 0 18.4871 2.76273 18.4871 6.17073ZM0.852884 25H24.1453H24.1471C24.6675 25 25.068 24.5405 24.9903 24.0289C24.4869 20.7073 22.7658 17.8016 20.312 15.8112C18.1605 14.0668 15.4465 13.0271 12.5005 13.0271C9.55443 13.0271 6.84327 14.065 4.69549 15.8056L4.69362 15.8075C2.23607 17.7969 0.513169 20.7055 0.00968187 24.0289C-0.0679937 24.5395 0.331615 25 0.852884 25Z" fill="#222222"/>
</svg>
