<svg width="39" height="25" viewBox="0 0 39 25" fill="none" xmlns="http://www.w3.org/2000/svg">
    <path d="M11.452 17.94c.31-.521.463-1.226.463-2.106a4.46 4.46 0 0 0-.327-1.731 3.439 3.439 0 0 0-.894-1.21 4.298 4.298 0 0 0-1.338-.686 6.384 6.384 0 0 0-1.683-.23H.136c-.074 0-.136.059-.136.129v12.766c0 .07.062.129.136.129h3.301c.074 0 .136-.06.136-.13v-3.854c0-.058.044-.112.106-.126l3.048-.64a.137.137 0 0 1 .153.076l2.052 4.595c.02.048.07.079.123.079h3.432c.097 0 .162-.096.123-.18l-2.482-5.467c-.026-.059 0-.126.056-.16.552-.32.98-.726 1.27-1.25l-.002-.004zm-3.416-1.11c-.224.26-.62.44-1.203.538l-3.104.544c-.083.014-.16-.045-.16-.126v-2.87c0-.07.063-.129.136-.129h3.487c.342 0 .637.115.858.326.207.23.31.507.31.8 0 .358-.121.653-.327.914l.003.002zM18.58 21.577l-2.314-5.19a.135.135 0 0 0-.124-.078h-2.583c-.073 0-.135.058-.135.129v8.432c0 .07.062.129.135.129h2.556c.074 0 .136-.059.136-.13v-2.282c0-.138.197-.18.256-.054l1.17 2.39c.024.045.071.073.124.073h1.816c.053 0 .1-.028.124-.073l1.17-2.39c.062-.123.257-.084.257.053v2.284c0 .07.062.129.135.129h2.556c.073 0 .135-.059.135-.13v-8.431c0-.07-.061-.13-.135-.13h-2.582a.135.135 0 0 0-.124.08l-2.323 5.189c-.047.103-.203.103-.248 0h-.003z" fill="#222"/>
    <path d="M36.107 19.628a.141.141 0 0 0-.207.028l-.062.096a7.587 7.587 0 0 1-.669.908 4.17 4.17 0 0 1-.79.67 3.463 3.463 0 0 1-.955.419c-.35.098-.74.146-1.19.146-.564 0-1.038-.087-1.46-.278a2.918 2.918 0 0 1-1.129-.763 3.04 3.04 0 0 1-.71-1.13c-.171-.416-.257-.876-.257-1.414 0-.539.086-1.007.26-1.436.168-.432.404-.806.728-1.145a3.235 3.235 0 0 1 1.093-.746 3.773 3.773 0 0 1 1.439-.275c.852 0 1.571.188 2.137.56a4.749 4.749 0 0 1 1.43 1.547l.059.098c.041.07.138.087.203.036l2.373-1.902a.125.125 0 0 0 .024-.174l-.056-.072c-.79-1.038-1.695-1.838-2.689-2.377-1.008-.532-2.205-.799-3.564-.799a8.35 8.35 0 0 0-2.856.494c-.018.005-.032.014-.05.022-.074-.098-.15-.196-.227-.3a92.288 92.288 0 0 0-.48-.648l-.006-.008c-.071-.099.026-.228.147-.197.009 0 .018.006.026.006 1 .216 1.68.092 1.958.017a.126.126 0 0 0 .088-.169l-.026-.07a.122.122 0 0 1 .056-.154c.928-.51 1.294-1.863.804-3.187-.25-.681-.69-1.26-1.232-1.63-.527-.356-1.093-.48-1.62-.358a.133.133 0 0 1-.154-.082.137.137 0 0 0-.127-.084h-.477c-1.097.014-1.36.609-1.424.895a.19.19 0 0 1-.189.149h-.233a.192.192 0 0 1-.174-.107 15.154 15.154 0 0 0-.215-.426l-.009-.023c-.315-.906-.45-1.481-.457-1.498-.115-.524-.598-.897-1.164-.897h-.124c-.073-.517-.206-1.271-.398-1.58a1.441 1.441 0 0 0-.852-.648.187.187 0 0 1-.13-.146c-.085-.356-.38-.535-.79-.645L20.688.06c-.61-.165-.97 0-1.07.68l-.041.271c-.1.676.097 1.03.725 1.086l1.117.104c.454.042.87-.006 1.058-.387a.13.13 0 0 0 .012-.031c.127.03.313.115.454.345.091.146.186.58.26 1.032a.187.187 0 0 1-.192.213l-1.188.006a.179.179 0 0 1-.148-.067.353.353 0 0 0-.291-.138c-.596.011-2.008-.022-3.446-.505a.366.366 0 0 0-.454.197l-.752 1.548c-.085.205.047.424.271.463.655.106 3.508.5 4.628.53a.139.139 0 0 0 .13-.078l.094-.208A.136.136 0 0 1 22 5.044l1.143.157c.113.373.195.836.369 1.476.02.126-.147.275-.268.258-3.08-.477-6.35-.379-8.192.808-.993.64-3.867 2.106-4.834 2.597a.18.18 0 0 0-.01.32c.664.373 2.197 1.459 2.74 3.728.05.21.253.36.48.362l10.54.104h.007c.009-.087 1.662-3.37 1.715-3.31.357.406 1.132 1.352 1.4 1.66.027.028.056.065.086.098-.05.043-.17.152-.221.194a6.32 6.32 0 0 0-1.536 2.12c-.38.828-.566 1.712-.566 2.7 0 .987.186 1.884.566 2.692a6.045 6.045 0 0 0 1.536 2.127 7.071 7.071 0 0 0 2.305 1.371 8.346 8.346 0 0 0 2.853.494c1.386 0 2.612-.28 3.65-.833 1.008-.561 1.863-1.324 2.62-2.331l.053-.07a.122.122 0 0 0-.02-.171l-2.317-1.967h.009zM29.91 6.346c.425.289.773.752.976 1.304.319.864.192 1.753-.253 2.205-.1.101-.277.073-.328-.056l-1.409-3.554c-.032-.079.024-.166.113-.174.029 0 .055-.006.085-.006.265 0 .545.096.82.28h-.004z" fill="#222"/>
</svg>
