<svg width="25" height="25" viewBox="0 0 25 25" fill="none" xmlns="http://www.w3.org/2000/svg">
    <path d="M24.323 4.136H5.515a7.454 7.454 0 0 0-.545-1.52C4.106.88 2.69-.024.872.002A.898.898 0 0 0 0 .923a.898.898 0 0 0 .896.899c1.118-.016 1.928.502 2.48 1.584.259.508.4 1.03.475 1.391l1.552 14.25c.033.297.324.525.673.525h1.347a3.412 3.412 0 0 0-.69 2.068c0 1.856 1.459 3.36 3.26 3.36 1.8 0 3.26-1.504 3.26-3.36 0-.78-.259-1.498-.691-2.068h3.72a3.412 3.412 0 0 0-.69 2.068c0 1.856 1.46 3.36 3.26 3.36 1.8 0 3.26-1.504 3.26-3.36 0-.78-.258-1.498-.691-2.068h1.347c.348 0 .64-.227.673-.525l1.556-14.28c.037-.34-.275-.63-.674-.63zm-5.472 19.007c-.773 0-1.402-.674-1.402-1.503 0-.829.629-1.502 1.402-1.502.774 0 1.404.674 1.404 1.502s-.63 1.503-1.404 1.503zm-8.858 0c-.774 0-1.404-.674-1.404-1.503 0-.829.63-1.502 1.404-1.502.774 0 1.403.674 1.403 1.502s-.63 1.503-1.403 1.503zm11.81-5.392H7.04L5.755 5.957h17.334L21.804 17.75z" fill="#222"/>
</svg>
